PathFileType	4	(X/Y/Z)	D:\TRACE\v60_Jaco2_6-2-23\BothDRS_Motion1_7-platform.trc
DataRate	CameraRate	NumFrames	NumMarkers	Units	OrigDataRate	OrigDataStartFrame	OrigNumFrames
100.00	100.00	      29	5	mm	100.00	4688	      7500
Frame#	Time	Left_Front			Right_Front			Left_Aft			Right_Aft			Post			
		X1	Y1	Z1	X2	Y2	Z2	X3	Y3	Z3	X4	Y4	Z4	X5	Y5	Z5	

4688	46.870	-756.18604	-13.24426	-644.33923	814.02911	-11.17665	-649.26044	-664.41803	22.61855	490.51962	778.09332	22.75303	500.20316	29.59007	1275.08264	-1009.65082	
4689	46.880	-756.39349	-13.48853	-644.29095	813.70123	-11.52063	-649.32098	-664.84430	22.98519	490.50043	777.73468	22.99445	500.18881	29.08030	1274.65186	-1010.20465	
4690	46.890	-756.84204	-13.69163	-644.30200	813.26788	-11.78167	-649.44373	-665.56964	23.33589	490.53891	777.30219	23.17764	500.10739	28.97250	1274.21741	-1011.04749	
4691	46.900	-757.15466	-13.79124	-644.41107	813.04584	-12.11087	-649.39008	-666.20660	23.65124	490.38892	776.71637	23.36626	500.08539	28.51445	1273.86389	-1011.82477	
4692	46.910	-757.76172	-14.45153	-644.38702	812.40155	-12.61187	-649.41608	-666.72882	23.76429	490.26517	776.39435	23.57867	499.97260	28.08644	1273.30591	-1012.36951	
4693	46.920	-758.31085	-15.07986	-644.35791	811.95508	-12.96483	-649.24554	-666.93896	23.72319	490.29184	775.71838	23.72286	499.91519	27.33385	1272.87537	-1012.64020	
4694	46.930	-758.90540	-15.24109	-644.26630	811.04706	-13.34237	-649.62067	-667.36157	23.86015	490.31491	775.24298	23.90253	499.89737	26.82713	1272.68933	-1012.93231	
4695	46.940	-759.43805	-15.22776	-644.28375	810.68512	-13.30367	-649.67340	-668.21460	24.17545	489.99817	774.77545	24.03778	499.82382	26.17554	1272.35242	-1013.32147	
4696	46.950	-759.93579	-15.19953	-644.52039	810.33215	-13.54443	-649.68707	-668.88605	24.46735	490.02017	774.38422	24.19779	499.74387	25.55167	1271.82251	-1013.91266	
4697	46.960	-760.56348	-15.45551	-644.50702	809.74194	-13.74532	-649.83069	-669.30005	24.53844	490.10336	773.63654	24.41601	499.56836	25.25108	1271.30042	-1014.07587	
4698	46.970	-761.09637	-15.92473	-644.70868	808.86615	-14.04860	-649.92792	-669.69775	24.64974	490.43967	773.04883	24.55010	499.49667	24.65063	1271.01062	-1014.38000	
4699	46.980	-761.53766	-16.28370	-644.81244	808.45776	-14.33386	-649.82050	-669.56036	24.09706	489.62466	772.21674	24.80464	499.55630	24.23735	1270.68420	-1014.74237	
4700	46.990	-762.09772	-16.30963	-645.01569	807.82953	-14.62269	-649.72253	-670.23798	24.07943	489.89835	771.95825	24.82726	499.46881	22.96197	1270.32019	-1015.55035	
4701	47.000	-762.83441	-16.51639	-644.62585	807.33057	-14.82054	-649.88434	-671.06549	24.63264	489.76996	771.31787	24.99302	499.43320	22.51507	1270.14832	-1015.89069	
4702	47.010	-763.50366	-16.69533	-644.50677	806.69434	-14.98899	-650.05383	-671.49207	24.77152	489.66251	770.63354	25.25830	499.33533	21.89564	1269.69226	-1016.71619	
4703	47.020	-764.02820	-16.81934	-644.80328	806.07098	-15.14641	-650.07001	-671.98987	24.96987	489.54852	770.20740	25.48763	499.28925	21.45231	1269.47693	-1017.49292	
4704	47.030	-764.54248	-17.16346	-645.22205	805.35577	-15.35596	-650.05194	-672.78967	25.07371	489.40552	769.65967	25.67943	499.29575	21.01277	1269.14136	-1017.99542	
4705	47.040	-765.21198	-17.51687	-645.13257	804.59607	-15.77233	-650.09448	-673.48883	25.12693	489.41016	769.08716	25.75066	499.33032	20.42638	1268.77283	-1018.52161	
4706	47.050	-766.06097	-17.67102	-644.90527	804.18939	-15.90752	-649.94763	-674.29187	25.36805	489.29657	768.04187	25.88580	499.34610	19.53620	1268.29968	-1019.20770	
4707	47.060	-766.73303	-17.89240	-644.79242	803.41632	-16.11931	-650.09381	-674.89886	25.56343	489.20184	767.57660	26.04945	499.22556	18.81821	1267.91602	-1019.44196	
4708	47.070	-767.40002	-18.04418	-644.79987	802.60071	-16.37127	-650.25391	-675.47107	25.70789	489.24939	767.02002	26.22223	499.07446	18.31037	1267.67480	-1019.85437	
4709	47.080	-768.12000	-18.32517	-645.03003	801.95190	-16.54553	-650.31146	-676.13641	25.83742	489.19797	766.27875	26.36004	498.94678	17.71215	1267.43835	-1020.26672	
4710	47.090	-768.58105	-18.52333	-645.23993	801.44940	-16.76826	-650.28485	-676.89417	25.88544	489.17722	765.42670	26.49200	499.01523	17.13608	1267.04736	-1020.73126	
4711	47.100	-769.37024	-18.73549	-645.22662	800.71442	-16.89679	-650.20337	-677.45520	25.83819	489.23166	764.73260	26.49549	498.87802	16.35081	1266.89783	-1020.80389	
4712	47.110	-770.25378	-18.77981	-644.97247	799.93335	-16.99669	-650.09930	-678.17694	25.99343	489.19962	763.97198	26.54821	498.87210	15.23459	1266.50452	-1021.06482	
4713	47.120	-771.03302	-19.06697	-644.93201	799.16608	-17.08782	-650.14789	-679.14001	26.23715	489.18231	763.11743	26.64278	498.79721	14.73819	1266.45398	-1021.23126	
4714	47.130	-771.73761	-18.99358	-645.12811	798.19012	-17.18178	-650.50256	-680.10730	26.55293	489.57562	762.54071	26.73633	498.75397	14.01665	1266.21887	-1021.16986	
4715	47.140	-772.41351	-19.13451	-645.28088	797.61444	-17.29773	-650.41699	-680.71454	26.38877	489.12326	761.67761	26.85430	498.79459	13.05966	1265.99695	-1021.39880	
4716	47.150	-773.22113	-19.25887	-645.35114	796.86633	-17.41753	-650.39111	-681.49573	26.54137	489.17838	760.62189	26.94490	498.91153	11.95679	1265.97620	-1021.59088	
